<?xml version="1.0" encoding="utf-8"?>
<!-- Generator: Adobe Illustrator 27.8.1, SVG Export Plug-In . SVG Version: 6.00 Build 0)  -->
<svg version="1.1" id="Calque_1" xmlns="http://www.w3.org/2000/svg" xmlns:xlink="http://www.w3.org/1999/xlink" x="0px" y="0px" viewBox="0 0 800 800" style="enable-background:new 0 0 800 800;" xml:space="preserve">
<style type="text/css">
	.st0{fill:#FFC107;}
	.st1{fill:#084887;}
</style>
<path class="st0" d="M390.4,120.1l10.6,30h31.8l-24.7,19.4l8.8,30l-26.5-17.6L364,199.4l8.8-30L348.1,150h31.8L390.4,120.1
	L390.4,120.1z"/>
<path class="st0" d="M506.6,151l10.6,30h31.8l-24.7,19.4l8.8,30l-26.5-17.6l-26.5,17.6l8.8-30L464.3,181H496L506.6,151L506.6,151z"/>
<path class="st0" d="M593.7,236.2l10.6,30H636l-24.7,19.4l8.8,30l-26.5-17.6l-26.5,17.6l8.8-30l-24.7-19.4h31.8L593.7,236.2
	L593.7,236.2z"/>
<path class="st0" d="M624.7,352.3l10.6,30H667l-24.7,19.4l8.8,30l-26.5-17.6l-26.5,17.6l8.8-30l-24.7-19.4h31.8L624.7,352.3
	L624.7,352.3z"/>
<path class="st0" d="M591.8,470.4l10.6,30h31.8l-24.7,19.4l8.8,30l-26.5-17.6l-26.5,17.6l8.8-30l-24.7-19.4h31.8L591.8,470.4
	L591.8,470.4z"/>
<path class="st0" d="M506.6,555.6l10.6,30h31.8L524.2,605l8.8,30l-26.5-17.6L480.1,635l8.8-30l-24.7-19.4H496L506.6,555.6
	L506.6,555.6z"/>
<path class="st0" d="M390.4,586.6l10.6,30h31.8L408.1,636l8.8,30l-26.5-17.6L364,665.9l8.8-30l-24.7-19.4h31.8L390.4,586.6
	L390.4,586.6z"/>
<path class="st0" d="M274.3,555.6l10.6,30h31.8L291.9,605l8.8,30l-26.5-17.6L247.8,635l8.8-30L232,585.6h31.8L274.3,555.6
	L274.3,555.6z"/>
<path class="st0" d="M189.1,470.4l10.6,30h31.8l-24.7,19.4l8.8,30l-26.5-17.6l-26.5,17.6l8.8-30l-24.7-19.4h31.8L189.1,470.4
	L189.1,470.4z"/>
<path class="st0" d="M158.1,352.3l10.6,30h31.8l-24.7,19.4l8.8,30l-26.5-17.6l-26.5,17.6l8.8-30l-24.7-19.4h31.8L158.1,352.3
	L158.1,352.3z"/>
<path class="st0" d="M189.1,236.2l10.6,30h31.8l-24.7,19.4l8.8,30l-26.5-17.6l-26.5,17.6l8.8-30l-24.7-19.4h31.8L189.1,236.2
	L189.1,236.2z"/>
<path class="st0" d="M274.3,151l10.6,30h31.8l-24.7,19.4l8.8,30l-26.5-17.6l-26.5,17.6l8.8-30L232,181h31.8L274.3,151L274.3,151z"/>
<path class="st1" d="M377.7,445.2h-57.2l-8.7,26.3h-47.2l58.8-161.4h51.7l58.6,161.4h-47.4L377.7,445.2L377.7,445.2z M366.5,410.9
	l-17.4-52.2l-17.2,52.2H366.5z"/>
<path class="st1" d="M493.3,310.2v161.4h-44.9V310.2L493.3,310.2L493.3,310.2z"/>
</svg>
