<?xml version="1.0" encoding="UTF-8"?>
<svg id="Calque_1" data-name="Calque 1" xmlns="http://www.w3.org/2000/svg" viewBox="0 0 1604.3 1604.3">
  <rect x="605.51" y="436.42" width="469.83" height="426.92" fill="none"/>
  <circle cx="802.15" cy="802.15" r="762.15" fill="none" stroke="#0080a3" stroke-miterlimit="10" stroke-width="90"/>
  <g>
    <path d="M1066.59,704.02v24.33h-178.4v172.32h-33.45c-8.67,0-37.16-10.44-46.34-14.48-97.84-43.06-136.03-164.25-73.91-253.76,84.74-122.12,274.6-96.92,324.02,42.17l8.08,29.43Z" fill="#0180a3"/>
    <path d="M882.1,436.42c3.91,1.93,3.86,2.83,4.19,6.9.55,6.69.7,49.17-2.03,51.01-57.17,4.56-110.74,20.84-155.17,57.7-120.59,100.04-108.45,283.92,22.19,368.97,40.54,26.4,87.04,37.9,134.87,42.52v51.7c-8.94,4.87-26.61,3.76-37.48,3.02-109.79-7.46-217.36-95.26-251.33-198.73-60.51-184.32,72.66-366.88,261.26-381.21l3.23-1.87h20.27Z" fill="#0381a3"/>
    <path d="M884.13,1079.07v54.74c-219.04,12.42-430.37-183.03-419.65-405.46h55.75c5.72,6.15,2.32,17.01,3.06,25.32,14.54,162.63,139.55,292.38,299.64,318.68,20.36,3.34,40.81,4.05,61.2,6.72Z" fill="#0381a3"/>
  </g>
  <g>
    <path d="M353.61,321.39l43.46-34.52c33.67-26.75,62.15-20.64,79.1.7,13.37,16.83,13.73,36.98,5.9,54.06l80.96,26.36-29.75,23.64-71.29-23.83-18.6,14.77,39.19,49.33-25.25,20.06-103.72-130.57ZM441.05,350.28c17.42-13.84,19.42-28.2,9.63-40.53-8.55-10.77-21.54-13.86-40.92,1.54l-14.09,11.2,31.1,39.15,14.29-11.35Z" fill="#0080a3"/>
    <path d="M563.31,242.41c26.04-12.19,52.09-3.13,67.79,29.83l-13.28,11.74-47.87,30.41c10.27,13.69,25.12,18.88,40.75,11.57,16.98-7.95,25.31-27.31,25.31-27.31l16.57,16.53s-9.52,22.12-36.46,34.73c-35.1,16.43-64.97-.23-78.33-28.76-14.1-30.11-5.27-64.33,25.52-78.75ZM561.64,298.4l34.23-21.82s-9.57-19.26-24.74-12.16c-12.23,5.72-14.37,19.42-9.49,33.98Z" fill="#0080a3"/>
    <path d="M680.65,277.7c-15.92-3.61-26.82-14.49-30.09-29.13-5.63-25.13,14.73-44.03,40.1-49.72,14.64-3.28,21.04.15,33.48-2.63l13.91-3.11c7.81-1.75,14.33-5.77,14.33-5.77l6.63,21.57-11.95,2.68c-2.2.49-5.91,1.07-9.19,1.29,4.48,2.84,9.5,8.12,11.47,16.9,5.03,22.44-17.34,41.54-42.96,47.28-2.44.55-4.88,1.09-7.13,1.34-4.47,4.08-7.09,7.23-6.55,9.66.87,3.9,11.31,3.61,37.97,4.82,18.9.89,43.31,2.34,47.95,23.08,4.92,21.96-17.06,47.37-52.43,55.3-25.37,5.68-52.5,1.25-56.65-17.29-3.39-15.13,10.07-29.41,19.68-37.97-12.15-1.63-19.53-4.85-21.28-12.66-1.8-8.05,3.82-17.25,12.7-25.65ZM720.06,234.03c-1.91-8.54-10.96-18.04-24.62-14.98-13.42,3.01-17.95,14.78-15.99,23.56,1.91,8.54,10.44,16.88,24.1,13.82,12.2-2.73,18.74-12.4,16.5-22.4ZM722.91,349.71c17.81-3.99,30.54-13.5,28.46-22.77-1.48-6.59-9.45-7.88-28.65-8.95l-12.72-.74c-6.66,6.87-16.89,16.08-14.87,25.11,1.8,8.05,12.41,10.8,27.78,7.36Z" fill="#0080a3"/>
    <path d="M780.56,145.03c-.58-10.23,6.75-17.91,17.49-18.51,10.48-.59,18.63,6.21,19.21,16.44.58,10.23-6.75,17.91-17.24,18.5-10.73.6-18.88-6.2-19.46-16.43ZM785.68,187.06l31.2-1.76,6.4,113.57-31.2,1.76-6.4-113.57Z" fill="#0080a3"/>
    <path d="M850.52,265.32s12.46,12.84,30.9,14.4c11.96,1.01,18.02-2.49,18.51-8.22,1.3-15.44-51.94-20.7-49.02-55.32,1.54-18.19,16.17-34.01,50.05-31.15,20.93,1.77,33.1,9.07,33.1,9.07l-8.6,24.61s-11.8-8.77-26.5-10.02c-11.46-.97-16.49,2.12-16.95,7.6-1.3,15.44,51.71,20.43,48.79,55.05-1.77,20.93-19.99,34.69-50.13,32.14-24.66-2.08-38.77-13.31-38.77-13.31l8.62-24.86Z" fill="#0080a3"/>
    <path d="M974.67,221.53l-17.16-4.54,4.28-16.19,19.72-1.25,6.77-25.62,30.78,1.93-8.5,32.15,33.6,8.88-5.69,21.51-33.6-8.88-13.29,50.27c-3.07,11.6-.24,17.52,7.02,19.44,6.53,1.73,16.63-1.29,23.76-3.8l2.4,24.17s-18.91,7.93-39.93,2.37c-20.3-5.37-31.32-20.43-25.38-42.91l15.21-57.52Z" fill="#0080a3"/>
    <path d="M1078.24,232.4l29.41,7.76-9.65,21.43c7.62-5.34,24.67-15.21,40.86-7.92,5.7,2.57,8.07,5.83,8.07,5.83l-16.88,25.3s-3.86-4.21-8.88-6.47c-11.17-5.03-24.88,1.68-32.09,6.11l-28.03,62.23-28.49-12.83,45.69-101.43Z" fill="#0080a3"/>
    <path d="M1214.35,300.13c23.66,16.34,28.97,43.4,8.44,73.58l-16.83-5.55-50.41-26c-6.64,15.77-3.63,31.22,10.56,41.02,15.43,10.65,36.34,8.08,36.34,8.08l-5.92,22.65s-23.9,2.94-48.38-13.97c-31.89-22.02-32.58-56.22-14.68-82.14,18.89-27.36,52.89-37,80.87-17.68ZM1165.16,326.93l36.1,18.55s11.81-17.98-1.98-27.49c-11.11-7.67-24.02-2.61-34.13,8.94Z" fill="#0080a3"/>
  </g>
  <g>
    <path d="M456.8,1122.79l39.07,24.75-27.92,119.33,95.94-76.26,38.44,24.34-84.15,144.09-26.4-16.72,65.81-112.79-108.9,85.51-17.74-11.24,31.04-134.52-73.28,107.77-26.19-16.59,94.29-137.67Z" fill="#0080a3"/>
    <path d="M664.76,1331.87l1.1-3.85c2.96-10.33,3.47-18.51-9.99-22.36-17.55-5.02-38.32,3.08-38.32,3.08l-1.16-23.21s23.28-8.68,54.29.19c28.12,8.04,33.47,22.05,26.6,46.09l-12.1,42.3c-3.64,12.74,8.62,16.24,8.62,16.24l-15.32,20.84c-17.89-5.64-24.24-15.25-25.92-24.83-4.5,3.91-17.93,13.59-39.08,7.54-19.95-5.71-29.42-21.68-24.75-38.02,6.81-23.8,34.62-30.14,76.03-24.02ZM654.8,1366.72l5.02-17.55c-24.76-3.44-36.57,1.5-39.87,13.04-1.92,6.73,2.2,10.51,7.96,12.16,8.65,2.47,18.2-1.81,26.89-7.65Z" fill="#0080a3"/>
    <path d="M762.34,1428.25l4.73-9.16-34.97-113.83,32.4,2.54,20.6,76.34,31.74-72.24,31.4,2.46-56.63,117.94c-11.08,22.96-33.18,45.8-62.05,46.3l-7.6-24.67c16.85-.69,33.57-12.42,40.38-25.68Z" fill="#0080a3"/>
    <path d="M924.16,1303.26c8.92-1.18,16.12-.11,20.04.89l-7.97-60.48,30.08-9.01,18.87,143.27c1.8,13.63,9.74,33.77,9.74,33.77l-28.52,5.52s-3.34-8.13-5.62-15.9c-4.21,10.14-13.54,19.69-32.13,22.14-29.5,3.89-51.42-18.95-55.46-49.68-4.18-31.73,11.57-65.32,50.98-70.51ZM954.39,1381.49l-5.75-43.62c-1.34-10.16-9.3-13.15-19.21-11.84-18.34,2.42-27.48,17.24-24.28,41.53,2.84,21.56,12.29,33.94,27.16,31.98,12.14-1.6,19.3-12.38,22.08-18.04Z" fill="#0080a3"/>
    <path d="M1041.37,1222.03l28.56-11.4,120.57,132.76-30.42,12.14-26.44-29.82-59.9,23.92,1.37,39.83-29.72,11.87-4.02-179.29ZM1072.64,1321.25l42.02-16.78-44.26-50.17,2.23,66.94Z" fill="#0080a3"/>
    <path d="M1143.45,1174.01l27.05-17.56,90.82,139.85-27.05,17.56-90.81-139.85Z" fill="#0080a3"/>
  </g>
</svg>